<?xml version="1.0" standalone="no"?>
<!DOCTYPE svg PUBLIC "-//W3C//DTD SVG 20010904//EN"
 "http://www.w3.org/TR/2001/REC-SVG-20010904/DTD/svg10.dtd">
<svg version="1.0" xmlns="http://www.w3.org/2000/svg"
 width="612.000000pt" height="612.000000pt" viewBox="0 0 612.000000 612.000000"
 preserveAspectRatio="xMidYMid meet">
<metadata>
Created by potrace 1.14, written by Peter Selinger 2001-2017
</metadata>
<g transform="translate(0.000000,612.000000) scale(0.100000,-0.100000)"
fill="#000000" stroke="none">
<path d="M1805 5645 c11 -8 25 -22 31 -29 6 -9 15 -11 24 -6 9 6 1 14 -31 29
-25 13 -35 15 -24 6z"/>
<path d="M1760 5644 c0 -7 27 -34 34 -34 3 0 3 6 0 14 -5 14 -34 31 -34 20z"/>
<path d="M1855 5566 c16 -13 33 -22 37 -20 4 3 17 -10 29 -28 12 -18 19 -25
16 -16 -4 10 -2 20 3 23 16 10 11 28 -5 22 -8 -4 -17 -1 -21 5 -4 7 -3 8 4 4
7 -4 12 -3 12 3 0 16 -22 25 -65 28 l-40 3 30 -24z"/>
<path d="M1984 5511 c6 -8 2 -11 -10 -9 -14 2 -18 -2 -16 -17 2 -11 4 -25 4
-32 1 -7 5 -10 9 -7 12 7 31 -34 23 -48 -4 -7 -3 -8 4 -4 7 4 12 2 12 -4 0 -8
9 -10 24 -6 28 7 58 -2 50 -15 -3 -5 -1 -9 4 -9 5 0 12 9 15 20 4 14 -5 28
-31 50 -19 16 -40 26 -46 22 -7 -4 -3 -8 8 -10 14 -3 15 -6 6 -12 -8 -5 -9 -9
-1 -14 6 -4 11 -2 11 4 0 6 5 8 11 5 6 -5 4 -12 -7 -20 -16 -11 -20 -8 -34 19
-14 28 -14 32 0 43 13 11 12 12 -9 13 -16 0 -21 4 -18 15 4 8 1 17 -5 21 -7 5
-8 3 -4 -5z m4 -39 c6 -18 -15 -14 -22 4 -4 10 -1 14 6 12 6 -2 14 -10 16 -16z"/>
<path d="M3717 5513 c-4 -3 -7 -11 -7 -17 0 -6 5 -5 12 2 6 6 9 14 7 17 -3 3
-9 2 -12 -2z"/>
<path d="M3639 5414 c-51 -63 -54 -65 -57 -39 l-4 27 -24 -35 c-28 -42 -33
-67 -8 -46 10 8 8 0 -6 -24 -25 -43 -36 -52 -45 -37 -10 17 -28 11 -21 -6 4
-10 -1 -25 -10 -35 -10 -11 -14 -19 -11 -19 4 0 -1 -9 -10 -20 -10 -10 -28
-30 -39 -43 -16 -17 -19 -28 -12 -40 6 -12 5 -17 -3 -17 -6 0 -9 -8 -6 -20 3
-11 1 -18 -4 -15 -11 7 -23 -40 -15 -60 10 -27 25 -16 48 35 15 34 29 50 41
50 11 0 21 9 24 20 3 11 10 20 16 20 6 0 8 3 4 6 -3 4 0 13 8 20 9 9 12 27 10
50 -4 25 -1 36 11 41 8 3 13 12 10 20 -3 8 -1 11 4 8 6 -3 10 -1 10 4 0 6 16
28 35 48 19 20 35 43 35 50 0 7 5 13 10 13 6 0 10 4 10 10 0 5 10 21 23 36 19
22 41 64 34 64 -2 0 -28 -30 -58 -66z m-134 -235 c-1 -20 -21 -39 -40 -38 -5
0 1 6 15 14 14 8 19 14 11 15 -11 0 -11 3 -1 15 16 19 17 19 15 -6z m-35 -89
c0 -5 -4 -10 -10 -10 -5 0 -10 5 -10 10 0 6 5 10 10 10 6 0 10 -4 10 -10z"/>
<path d="M3610 5464 c0 -17 17 -36 24 -26 3 5 -1 15 -9 22 -8 7 -15 9 -15 4z"/>
<path d="M3494 5368 l-19 -23 23 19 c21 18 27 26 19 26 -2 0 -12 -10 -23 -22z"/>
<path d="M2038 5357 c6 -7 12 -40 14 -72 2 -43 7 -59 16 -57 10 2 11 -4 6 -20
-6 -20 -5 -21 10 -9 14 11 16 11 16 -2 0 -8 3 -24 6 -34 5 -16 4 -16 -10 1
-20 25 -20 14 -1 -24 16 -32 29 -41 18 -14 -3 9 0 19 6 24 10 6 9 14 -3 38 -9
17 -16 38 -16 47 0 9 -9 35 -20 57 -11 23 -20 50 -20 60 0 10 -7 18 -16 18
-12 0 -14 -3 -6 -13z"/>
<path d="M2768 5353 c7 -3 16 -2 19 1 4 3 -2 6 -13 5 -11 0 -14 -3 -6 -6z"/>
<path d="M2120 5348 c0 -14 23 -58 32 -58 4 0 8 -7 8 -15 0 -8 5 -15 10 -15 6
0 10 -4 10 -10 0 -5 -7 -10 -15 -10 -8 0 -15 7 -15 15 0 8 -13 29 -30 47 -21
21 -30 26 -30 15 0 -9 9 -23 21 -31 12 -8 18 -19 14 -25 -3 -6 -1 -11 6 -11 7
0 10 -3 7 -6 -10 -9 32 -46 47 -41 18 8 35 -13 35 -42 0 -21 2 -23 10 -11 8
13 10 12 10 -2 0 -10 -6 -18 -12 -19 -7 0 -3 -4 10 -9 12 -5 22 -16 22 -24 0
-8 5 -18 12 -22 7 -5 8 -3 3 6 -5 8 -4 11 3 6 6 -3 14 -1 17 5 4 5 13 8 21 5
8 -3 14 0 14 5 0 7 -9 9 -21 6 -15 -4 -23 1 -31 19 -6 13 -15 24 -20 24 -4 0
-8 5 -8 11 0 5 4 8 9 4 5 -3 13 0 17 6 4 7 3 9 -4 5 -6 -3 -13 3 -17 14 -4 11
-11 17 -17 14 -7 -4 -8 -2 -4 5 4 6 2 18 -4 27 -10 11 -16 12 -28 2 -13 -11
-14 -10 -4 9 15 28 15 33 -2 33 -8 0 -28 17 -45 38 -17 20 -30 34 -31 30z"/>
<path d="M2800 5313 c-16 -18 -17 -23 -5 -23 8 0 15 6 15 13 0 7 12 18 28 24
24 9 24 10 4 10 -12 -1 -31 -12 -42 -24z"/>
<path d="M3502 5303 c2 -11 -2 -17 -11 -15 -12 3 -12 1 -1 -13 12 -15 15 -14
26 7 13 24 10 38 -7 38 -5 0 -9 -8 -7 -17z"/>
<path d="M2820 5300 c0 -5 5 -10 10 -10 6 0 10 5 10 10 0 6 -4 10 -10 10 -5 0
-10 -4 -10 -10z"/>
<path d="M2711 5277 c-6 -16 -11 -36 -11 -45 0 -13 -2 -13 -14 4 -15 19 -15
19 -12 -1 2 -11 10 -21 19 -23 15 -3 22 8 18 31 0 4 4 7 10 7 5 0 8 4 5 9 -4
5 -2 11 4 13 6 2 6 9 0 18 -7 11 -11 9 -19 -13z"/>
<path d="M2763 5275 c15 -14 27 -30 27 -35 0 -6 5 -10 10 -10 6 0 10 12 10 26
0 19 -4 25 -14 21 -8 -3 -20 1 -26 9 -7 8 -17 14 -24 14 -6 0 2 -11 17 -25z"/>
<path d="M2750 5250 c0 -5 5 -10 11 -10 5 0 7 5 4 10 -3 6 -8 10 -11 10 -2 0
-4 -4 -4 -10z"/>
<path d="M2735 5219 c-4 -6 -5 -12 -2 -15 2 -3 7 2 10 11 7 17 1 20 -8 4z"/>
<path d="M2656 5199 c3 -6 0 -16 -6 -24 -9 -11 -9 -15 -1 -16 26 -3 30 -4 37
-11 14 -15 20 -8 22 25 2 24 0 28 -8 17 -5 -8 -10 -10 -10 -4 0 7 -9 14 -20
17 -11 3 -17 1 -14 -4z"/>
<path d="M3309 5153 c-13 -16 -12 -17 4 -4 16 13 21 21 13 21 -2 0 -10 -8 -17
-17z"/>
<path d="M2611 5144 c-1 -6 5 -17 13 -24 8 -6 12 -18 9 -26 -4 -12 -8 -12 -18
3 -12 16 -13 15 -8 -9 3 -15 0 -29 -8 -33 -8 -6 -10 -4 -4 4 6 10 3 11 -14 2
-23 -13 -28 -23 -10 -18 6 1 14 -4 17 -12 3 -9 0 -11 -8 -6 -10 6 -12 1 -8
-18 3 -15 1 -24 -3 -21 -5 3 -9 0 -9 -7 0 -9 -4 -9 -15 1 -12 10 -15 7 -21
-14 -6 -25 -7 -25 -20 -9 -7 10 -14 16 -14 13 -9 -64 -9 -83 0 -62 12 29 19
28 16 -3 -2 -14 3 -30 10 -36 15 -12 9 -33 -7 -24 -5 4 -9 -2 -9 -12 0 -15 -2
-16 -10 -3 -5 8 -7 23 -4 33 3 9 1 17 -5 17 -5 0 -11 -10 -13 -22 -2 -13 -9
-22 -16 -20 -15 3 -16 -14 -2 -23 6 -4 8 -11 5 -16 -4 -5 -1 -9 5 -9 7 0 10 7
7 15 -4 8 -2 17 2 20 15 9 19 -44 5 -56 -8 -6 -14 -19 -15 -28 0 -12 -2 -11
-9 4 -6 14 -9 15 -10 5 -1 -10 -4 -9 -10 5 -7 17 -9 15 -9 -11 -1 -36 -10 -48
-25 -34 -8 6 -16 2 -24 -11 -11 -18 -11 -21 7 -26 10 -3 22 -16 25 -29 4 -13
13 -24 22 -24 8 0 13 -3 10 -8 -2 -4 3 -16 11 -27 15 -19 15 -19 8 5 -5 21 -3
20 14 -8 12 -18 21 -44 21 -57 0 -14 4 -25 8 -25 5 0 9 -6 9 -14 0 -8 -3 -15
-6 -14 -19 2 -31 -3 -31 -13 0 -6 7 -9 15 -5 14 5 21 -16 16 -46 0 -5 3 -8 8
-8 13 0 22 28 10 34 -5 2 -4 3 3 2 7 -1 14 -15 16 -30 2 -17 0 -26 -7 -22 -5
4 -12 2 -16 -4 -4 -6 -10 -8 -14 -6 -4 3 -8 -1 -8 -9 0 -8 4 -15 9 -15 4 0 8
4 8 8 0 5 6 9 14 9 19 0 13 -73 -8 -96 -19 -21 -20 -31 -3 -31 7 0 22 -7 33
-16 10 -8 13 -13 7 -9 -8 4 -13 0 -13 -9 0 -9 -5 -16 -11 -16 -5 0 -7 6 -3 13
5 9 3 9 -7 -1 -10 -9 -11 -15 -3 -20 6 -4 10 -15 8 -25 -1 -12 2 -17 10 -14 9
4 12 -3 10 -24 -3 -21 1 -29 12 -29 8 0 12 -5 9 -10 -4 -6 -10 -8 -15 -5 -5 3
-14 -3 -20 -12 -9 -15 -10 -15 -4 6 4 16 3 21 -5 17 -18 -11 -13 5 7 21 9 8
11 12 4 8 -6 -3 -15 1 -18 9 -4 11 -18 15 -51 14 -28 -2 -47 2 -52 11 -6 9
-19 12 -36 9 -16 -3 -32 0 -41 9 -11 12 -21 13 -45 4 -17 -6 -35 -9 -39 -6 -8
5 -20 -17 -20 -36 0 -5 10 -9 23 -10 21 -1 21 -1 -3 -8 -30 -9 -39 -5 -50 23
-6 15 -9 16 -9 5 -1 -25 -31 -33 -31 -9 0 11 -7 20 -15 20 -18 0 -20 -16 -2
-23 6 -3 -7 -2 -30 0 -24 3 -43 2 -43 -3 0 -5 12 -10 26 -11 15 0 36 -11 48
-23 l21 -23 -25 17 c-13 9 -28 16 -31 16 -13 0 16 -49 31 -54 8 -3 4 -4 -10
-3 -18 1 -24 7 -22 20 3 21 -5 22 -23 3 -8 -7 -11 -18 -7 -22 4 -5 0 -3 -8 4
-13 12 -13 15 3 26 23 17 22 35 -2 29 -10 -3 -22 1 -26 8 -5 7 -4 10 2 6 6 -4
13 -1 16 7 7 18 -19 29 -40 17 -11 -6 -12 -10 -4 -15 6 -4 11 -15 11 -24 0
-13 -4 -11 -16 7 -12 17 -24 22 -43 19 -15 -2 -33 2 -40 9 -14 15 -65 18 -56
3 3 -5 17 -10 31 -10 14 0 23 -4 20 -9 -7 -12 -34 -8 -77 12 -20 9 -58 21 -85
28 -27 7 -51 15 -54 19 -5 6 -155 40 -178 40 -7 0 -11 -4 -7 -10 3 -5 -5 -16
-18 -25 -13 -8 -29 -31 -34 -50 -10 -31 -9 -37 8 -46 11 -5 35 -7 56 -3 21 4
34 3 30 -2 -3 -6 23 -8 64 -6 43 3 69 0 69 -6 0 -14 -105 -122 -118 -122 -6 0
-16 -9 -22 -21 -7 -11 -27 -27 -46 -35 -19 -8 -32 -19 -29 -24 3 -6 -1 -10 -9
-10 -9 0 -16 -5 -16 -11 0 -7 -10 -9 -27 -5 -18 4 -12 -2 17 -16 25 -11 78
-37 117 -56 89 -43 156 -51 218 -28 25 10 47 22 50 27 4 5 -2 6 -11 2 -11 -4
-15 -2 -11 4 5 7 -11 10 -48 9 -29 -1 -52 0 -50 4 2 3 -14 5 -35 5 -21 0 -36
-4 -33 -8 3 -5 -5 -6 -17 -2 -12 4 -28 8 -34 10 -45 9 -63 25 -59 49 7 36 33
55 93 66 87 16 169 12 278 -16 103 -26 152 -26 152 0 0 8 8 13 18 12 9 0 16 4
15 11 -2 7 3 10 11 7 21 -8 108 34 100 49 -4 7 2 4 13 -6 14 -12 23 -15 28 -7
3 5 11 8 16 4 18 -11 79 6 99 28 24 26 26 58 4 58 -8 0 -12 5 -9 10 3 6 26 10
51 10 32 0 44 4 44 15 0 8 5 15 10 15 7 0 7 -6 0 -19 -8 -16 -6 -20 7 -23 13
-2 8 -8 -17 -20 -19 -10 -29 -18 -21 -18 7 0 11 -6 8 -14 -3 -8 2 -16 14 -19
16 -4 19 -1 14 16 -5 21 -5 21 6 0 7 -13 20 -23 31 -23 19 0 21 19 3 33 -5 5
6 5 25 1 19 -3 37 -10 38 -15 5 -11 42 -12 42 -1 0 5 17 14 38 20 21 7 49 21
62 32 27 23 36 25 43 8 4 -10 6 -10 6 -1 1 7 8 10 16 7 8 -4 15 -1 15 5 0 16
28 13 37 -4 5 -9 17 -12 31 -9 12 4 20 10 17 14 -3 5 0 12 6 16 8 4 9 3 5 -4
-14 -23 24 -12 45 12 18 21 25 23 45 14 18 -9 37 -7 83 7 56 17 147 76 135 88
-3 3 4 3 16 0 17 -4 21 -2 18 8 -3 8 2 19 11 26 22 16 7 27 -18 13 -17 -8 -21
-8 -21 4 0 11 -5 12 -23 3 -24 -11 -47 -49 -47 -78 0 -9 -7 -20 -16 -23 -13
-5 -15 -1 -10 18 3 13 3 26 -2 29 -4 2 -2 2 5 1 7 -2 15 1 18 6 6 10 -10 13
-76 12 -24 0 -36 5 -36 14 0 9 4 10 11 5 14 -12 66 -2 67 13 0 6 4 2 9 -9 8
-19 9 -19 9 2 1 13 12 30 27 39 24 16 25 21 21 88 -3 45 -9 72 -17 74 -10 4
-11 -4 -7 -27 6 -28 5 -30 -8 -18 -8 8 -12 24 -10 36 2 12 0 21 -6 21 -5 0 -2
11 7 24 19 30 26 96 10 96 -6 0 -22 -7 -34 -16 -18 -12 -26 -13 -37 -4 -10 8
-15 9 -15 2 0 -6 5 -14 10 -17 7 -4 7 -12 0 -24 -5 -10 -6 -21 -3 -25 3 -3 1
-6 -5 -6 -6 0 -19 -14 -27 -30 -9 -17 -20 -28 -25 -25 -6 4 -10 0 -10 -8 0 -9
9 -13 25 -12 17 2 23 0 18 -8 -14 -22 -13 -48 2 -53 8 -4 15 -10 15 -16 0 -5
-10 -2 -22 6 -17 12 -25 13 -37 3 -12 -9 -13 -9 -7 1 5 8 0 12 -13 12 -29 0
-26 -14 4 -28 32 -15 38 -15 30 -2 -3 6 1 10 10 10 11 0 15 -5 11 -16 -4 -10
-2 -13 7 -8 9 6 9 5 0 -8 -7 -8 -10 -19 -6 -24 4 -5 1 -3 -7 4 -19 16 -33 15
-27 -2 4 -10 0 -14 -14 -13 -19 1 -28 17 -8 17 5 0 7 5 3 12 -4 7 -3 8 4 4 7
-4 12 -3 12 2 0 16 -31 23 -46 11 -11 -9 -16 -6 -23 12 -13 32 -14 8 -1 -25 6
-17 6 -26 0 -26 -6 0 -10 7 -10 16 0 8 -4 12 -10 9 -5 -3 -10 -1 -10 6 0 7 -7
21 -16 31 -15 16 -15 18 0 24 9 3 13 11 10 16 -4 7 -9 6 -14 -1 -5 -8 -14 -9
-33 -2 -26 10 -32 5 -28 -21 0 -5 -3 -8 -9 -8 -5 0 -10 16 -10 35 0 19 4 35
10 35 5 0 7 -6 4 -13 -3 -9 6 -13 28 -14 29 -2 31 -1 10 7 -12 5 -25 16 -28
25 -3 8 -10 13 -14 10 -15 -9 -22 16 -9 31 15 19 21 47 8 38 -5 -3 -9 -12 -9
-20 0 -8 -5 -12 -10 -9 -6 4 -7 11 -4 17 4 7 2 8 -5 4 -6 -4 -9 -11 -6 -16 5
-8 -20 -8 -29 1 -3 2 -7 17 -10 33 -4 22 -2 27 10 22 9 -3 12 -1 9 4 -3 6 -14
10 -23 10 -15 1 -15 2 2 11 10 6 14 14 10 18 -22 15 -34 52 -24 70 7 14 6 22
-5 31 -8 7 -14 15 -13 18 1 4 -2 15 -7 25 -5 12 -2 22 11 32 18 14 18 14 -7
15 -22 0 -26 5 -26 28 0 15 -3 35 -7 45 -5 10 -4 17 3 17 6 0 11 -9 11 -20 0
-11 4 -20 8 -20 9 0 8 47 -1 57 -14 14 -6 23 12 14 15 -9 20 -7 24 9 4 17 1
19 -19 14 -18 -5 -24 -3 -22 7 2 7 -3 14 -9 15 -26 3 -28 5 -14 13 10 6 20 3
32 -12 10 -12 18 -17 19 -10 0 8 7 10 18 6 9 -4 4 5 -13 20 -16 14 -24 27 -17
27 6 0 12 9 12 19 0 11 6 21 12 23 7 3 2 7 -10 10 -15 4 -22 2 -22 -8 0 -18
-46 -19 -53 -1 -3 8 -1 20 4 28 8 11 9 10 7 -6 -2 -12 4 -21 16 -23 14 -3 17
0 13 13 -4 9 -3 14 2 10 5 -3 11 0 13 5 2 6 12 12 23 14 16 2 19 9 16 32 -4
37 -18 46 -58 39 -20 -4 -33 -1 -36 7 -3 8 -6 9 -6 2z m69 -24 c0 -5 -4 -10
-10 -10 -5 0 -10 5 -10 10 0 6 5 10 10 10 6 0 10 -4 10 -10z m22 -25 c3 -13 1
-22 -3 -19 -9 5 -13 44 -5 44 2 0 6 -11 8 -25z m-42 -15 c-6 -11 -12 -20 -14
-20 -2 0 -2 9 1 20 3 11 9 20 15 20 5 0 4 -9 -2 -20z m-43 -144 c2 -21 2 -21
-13 -2 -8 11 -14 26 -14 33 0 23 26 -7 27 -31z m-54 16 c2 7 4 -1 3 -18 -1
-17 -6 -31 -13 -31 -6 0 -9 6 -6 14 4 9 0 11 -13 6 -14 -5 -16 -3 -11 11 4 10
7 23 7 29 0 7 7 4 14 -6 10 -13 15 -15 19 -5z m66 -78 c-6 -8 -17 -14 -23 -14
-6 0 -3 7 6 14 10 7 14 17 10 21 -4 5 -1 5 6 1 10 -6 10 -11 1 -22z m-52 1 c0
-8 -4 -12 -9 -9 -5 3 -6 10 -3 15 9 13 12 11 12 -6z m16 -40 c-3 -9 -8 -14
-10 -11 -3 3 -2 9 2 15 9 16 15 13 8 -4z m39 -10 c3 -13 1 -22 -3 -19 -9 5
-13 44 -5 44 2 0 6 -11 8 -25z m-107 -35 c-4 -12 -9 -19 -12 -17 -3 3 -2 15 2
27 4 12 9 19 12 17 3 -3 2 -15 -2 -27z m-35 -34 c0 -3 -4 -8 -10 -11 -5 -3
-10 -1 -10 4 0 6 5 11 10 11 6 0 10 -2 10 -4z m161 -164 c-6 -2 -11 -22 -12
-45 0 -23 -3 -36 -6 -29 -3 7 -2 39 2 70 6 50 9 54 17 32 6 -16 6 -26 -1 -28z
m115 -185 c1 -23 -1 -36 -3 -29 -3 6 -9 9 -15 6 -7 -4 -7 2 -2 17 4 13 7 32 6
43 0 10 2 15 5 12 4 -4 8 -26 9 -49z m316 11 c-7 -7 -12 -8 -12 -2 0 6 3 14 7
17 3 4 9 5 12 2 2 -3 -1 -11 -7 -17z m-344 -93 c-3 -3 -9 2 -12 12 -6 14 -5
15 5 6 7 -7 10 -15 7 -18z m-193 -73 c-3 -3 -11 0 -18 7 -9 10 -8 11 6 5 10
-3 15 -9 12 -12z m42 -58 c-3 -3 -12 -4 -19 -1 -8 3 -5 6 6 6 11 1 17 -2 13
-5z m13 -90 c0 -1 -8 -1 -17 0 -10 2 -20 11 -21 20 -3 16 -2 16 17 -1 12 -9
21 -18 21 -19z m-270 22 c0 -2 -9 -6 -20 -9 -11 -3 -18 -1 -14 4 5 9 34 13 34
5z m105 -16 c3 -6 -1 -7 -9 -4 -18 7 -21 14 -7 14 6 0 13 -4 16 -10z m450 0
c3 -5 1 -10 -4 -10 -6 0 -11 5 -11 10 0 6 2 10 4 10 3 0 8 -4 11 -10z m-576
-66 c-14 -27 -26 -31 -26 -9 0 8 4 12 8 10 4 -3 10 7 14 23 4 16 10 21 12 14
3 -8 0 -25 -8 -38z m-259 15 c0 -6 -4 -7 -10 -4 -5 3 -10 11 -10 16 0 6 5 7
10 4 6 -3 10 -11 10 -16z m130 -9 c0 -16 -4 -30 -8 -30 -5 0 -7 14 -4 30 2 17
6 30 8 30 2 0 4 -13 4 -30z m-163 -12 c-3 -7 -5 -2 -5 12 0 14 2 19 5 13 2 -7
2 -19 0 -25z m233 12 c0 -5 -2 -10 -4 -10 -3 0 -8 5 -11 10 -3 6 -1 10 4 10 6
0 11 -4 11 -10z m116 -39 c-4 -6 -13 -11 -19 -10 -9 0 -9 2 0 5 7 3 9 13 6 22
-5 13 -3 14 7 5 7 -6 9 -16 6 -22z m119 19 c3 -6 -1 -7 -9 -4 -18 7 -21 14 -7
14 6 0 13 -4 16 -10z m-302 -33 c3 -8 2 -19 -3 -26 -5 -9 -9 -4 -12 13 -5 27
6 36 15 13z m-579 -215 c3 -5 -1 -9 -9 -9 -8 0 -12 4 -9 9 3 4 7 8 9 8 2 0 6
-4 9 -8z"/>
<path d="M2130 5130 c1 -8 7 -24 15 -34 8 -11 15 -30 15 -42 0 -12 5 -24 10
-26 6 -2 12 -14 15 -27 2 -14 9 -29 14 -34 5 -5 7 -17 4 -26 -4 -14 -3 -14 6
-1 14 19 14 57 0 66 -6 3 -9 15 -6 25 3 11 1 17 -4 13 -5 -3 -9 7 -9 23 0 23
-2 25 -11 13 -9 -12 -10 -10 -6 8 4 16 0 25 -11 29 -9 4 -20 11 -24 17 -5 7
-8 5 -8 -4z"/>
<path d="M3286 5113 c-6 -14 -5 -15 5 -6 7 7 10 15 7 18 -3 3 -9 -2 -12 -12z"/>
<path d="M3230 5025 c-24 -36 -40 -68 -36 -72 3 -3 6 -1 6 6 0 6 12 16 26 21
14 6 23 14 19 19 -7 12 16 62 26 56 4 -3 10 -1 14 5 3 5 1 10 -5 10 -6 0 -8 5
-5 10 3 6 4 10 2 10 -3 0 -24 -29 -47 -65z"/>
<path d="M2285 5069 c-4 -6 -4 -13 0 -17 3 -3 10 0 15 8 6 8 10 11 10 5 0 -5
-5 -17 -10 -25 -9 -13 -13 -11 -31 10 -11 14 -18 19 -14 13 3 -7 1 -13 -4 -13
-6 0 -11 -5 -11 -11 0 -5 4 -7 10 -4 12 7 71 -51 62 -61 -4 -4 -2 -4 5 0 8 4
15 -2 19 -19 3 -13 10 -22 15 -19 5 3 6 11 2 17 -5 7 -8 19 -8 27 -2 64 -41
121 -60 89z m53 -84 c-3 -3 -9 2 -12 12 -6 14 -5 15 5 6 7 -7 10 -15 7 -18z"/>
<path d="M2532 5020 c0 -14 2 -19 5 -12 2 6 2 18 0 25 -3 6 -5 1 -5 -13z"/>
<path d="M3330 4955 c0 -14 4 -25 9 -25 12 0 23 29 15 41 -10 18 -24 9 -24
-16z"/>
<path d="M3210 4959 c0 -5 5 -7 10 -4 6 3 10 8 10 11 0 2 -4 4 -10 4 -5 0 -10
-5 -10 -11z"/>
<path d="M2227 4943 c-4 -3 -7 -11 -7 -17 0 -6 5 -5 12 2 6 6 9 14 7 17 -3 3
-9 2 -12 -2z"/>
<path d="M2290 4934 c-1 -5 -3 -27 -5 -49 -3 -22 -2 -34 1 -27 3 6 9 10 13 8
10 -6 8 61 -2 70 -4 4 -7 3 -7 -2z"/>
<path d="M3165 4931 c-3 -5 -2 -12 3 -15 5 -3 9 1 9 9 0 17 -3 19 -12 6z"/>
<path d="M3305 4893 c-17 -26 -18 -26 -33 -7 -14 18 -14 18 -8 -7 4 -18 1 -31
-11 -40 -14 -12 -15 -11 -9 11 7 24 6 24 -18 -4 -14 -17 -23 -33 -20 -38 3 -4
-2 -8 -10 -8 -9 0 -17 -6 -18 -12 0 -7 -2 -18 -2 -23 -2 -18 -43 -65 -50 -58
-3 3 -6 1 -6 -5 0 -7 -9 -12 -21 -12 -12 0 -23 -8 -26 -20 -3 -11 -9 -20 -13
-20 -10 0 -7 -26 3 -36 4 -4 7 -2 7 4 0 7 7 12 15 12 9 0 12 6 9 18 -5 14 -3
14 10 -2 16 -19 16 -19 16 2 0 12 -5 22 -12 22 -6 0 -8 3 -5 6 4 4 13 1 22 -6
12 -10 15 -10 15 4 0 9 5 16 10 16 6 0 10 9 10 20 0 11 4 20 9 20 5 0 7 -9 4
-20 -8 -29 6 -24 17 6 7 18 7 30 0 38 -6 9 -6 16 2 24 18 18 28 15 21 -5 -6
-16 -3 -16 18 2 l24 20 -24 -27 c-22 -25 -22 -28 -6 -34 10 -4 21 -1 26 7 8
12 14 60 10 82 0 4 4 6 10 5 11 -3 38 36 52 75 9 25 2 21 -18 -10z"/>
<path d="M2211 4901 c-8 -5 -9 -11 -3 -15 5 -3 15 1 22 9 14 16 3 20 -19 6z"/>
<path d="M3168 4883 c-27 -32 -31 -49 -4 -19 14 16 26 31 26 33 0 7 -8 2 -22
-14z"/>
<path d="M2245 4866 c5 -31 12 -43 21 -34 3 4 -2 19 -10 35 l-16 28 5 -29z"/>
<path d="M3127 4883 c-4 -3 -7 -11 -7 -17 0 -6 5 -5 12 2 6 6 9 14 7 17 -3 3
-9 2 -12 -2z"/>
<path d="M2440 4871 c0 -6 4 -13 10 -16 6 -3 7 1 4 9 -7 18 -14 21 -14 7z"/>
<path d="M4360 4869 c0 -5 5 -7 10 -4 6 3 10 8 10 11 0 2 -4 4 -10 4 -5 0 -10
-5 -10 -11z"/>
<path d="M2496 4862 c-3 -5 1 -9 9 -9 8 0 12 4 9 9 -3 4 -7 8 -9 8 -2 0 -6 -4
-9 -8z"/>
<path d="M4330 4850 c-9 -6 -10 -10 -3 -10 6 0 15 5 18 10 8 12 4 12 -15 0z"/>
<path d="M4235 4840 c-3 -6 1 -7 9 -4 18 7 21 14 7 14 -6 0 -13 -4 -16 -10z"/>
<path d="M2290 4829 c0 -5 5 -7 10 -4 6 3 10 8 10 11 0 2 -4 4 -10 4 -5 0 -10
-5 -10 -11z"/>
<path d="M3028 4751 l-61 -76 57 55 c31 30 56 60 56 68 0 7 4 11 9 8 5 -3 14
0 20 7 8 10 7 14 -5 14 -8 0 -43 -34 -76 -76z"/>
<path d="M941 4794 c0 -11 3 -14 6 -6 3 7 2 16 -1 19 -3 4 -6 -2 -5 -13z"/>
<path d="M2287 4794 c-3 -5 1 -15 9 -22 16 -14 18 -5 5 17 -5 7 -11 9 -14 5z"/>
<path d="M2818 4743 c7 -3 16 -2 19 1 4 3 -2 6 -13 5 -11 0 -14 -3 -6 -6z"/>
<path d="M3272 4710 c-7 -12 -10 -30 -7 -41 4 -10 2 -19 -3 -19 -5 0 -21 -25
-37 -55 -15 -31 -33 -59 -40 -63 -17 -10 -26 -90 -11 -96 7 -3 7 -5 -1 -5 -7
-1 -13 -8 -13 -17 0 -36 23 -3 49 71 16 44 39 101 50 128 12 26 19 52 15 58
-4 6 -1 15 6 19 6 4 10 15 8 24 -2 14 -5 14 -16 -4z"/>
<path d="M3301 4637 c-18 -37 -40 -74 -48 -82 -8 -8 -10 -15 -5 -15 12 0 -55
-143 -69 -148 -5 -2 -9 -11 -9 -20 0 -15 2 -15 11 -2 8 12 9 10 7 -10 -4 -35
31 -38 62 -5 13 14 31 25 39 25 9 0 48 11 86 25 39 13 80 25 92 25 29 0 103
30 103 41 0 5 10 9 23 9 39 -1 287 103 287 120 0 33 -102 68 -220 75 -8 1 -31
5 -51 9 -20 4 -90 11 -155 14 l-119 7 -34 -68z"/>
<path d="M3197 4693 c-10 -9 -9 -23 1 -23 5 0 9 7 9 15 0 17 -1 18 -10 8z"/>
<path d="M3027 4673 c-4 -3 -7 -11 -7 -17 0 -6 5 -5 12 2 6 6 9 14 7 17 -3 3
-9 2 -12 -2z"/>
<path d="M2350 4641 c0 -5 5 -13 10 -16 6 -3 10 -2 10 4 0 5 -4 13 -10 16 -5
3 -10 2 -10 -4z"/>
<path d="M2710 4636 c0 -2 7 -7 16 -10 8 -3 12 -2 9 4 -6 10 -25 14 -25 6z"/>
<path d="M2380 4601 c0 -7 -5 -9 -12 -5 -7 5 -8 3 -3 -5 5 -9 10 -10 18 -2 6
6 8 14 4 18 -4 3 -7 1 -7 -6z"/>
<path d="M2889 4563 c-13 -16 -12 -17 4 -4 16 13 21 21 13 21 -2 0 -10 -8 -17
-17z"/>
<path d="M3060 4570 c0 -5 5 -10 10 -10 6 0 10 5 10 10 0 6 -4 10 -10 10 -5 0
-10 -4 -10 -10z"/>
<path d="M4548 4533 c-4 -15 -1 -23 13 -26 12 -3 22 -18 25 -36 5 -25 12 -31
31 -31 26 0 27 -12 7 -64 -4 -11 -1 -16 11 -16 14 0 16 -6 10 -40 -5 -28 -3
-40 5 -40 7 0 5 -6 -5 -16 -19 -19 -11 -79 15 -109 9 -11 29 -42 45 -69 26
-47 27 -50 9 -63 -22 -16 -73 -17 -111 -1 -15 6 -35 13 -43 14 -8 2 -53 17
-100 33 -46 17 -99 31 -118 31 -19 0 -31 4 -27 10 4 6 -7 10 -27 10 -18 1 -80
3 -138 6 -58 3 -140 1 -183 -4 -115 -15 -212 11 -285 74 -29 26 -30 29 -16 46
15 16 14 18 -12 23 -16 4 -36 9 -44 12 -8 4 -19 5 -23 4 -5 -1 -5 3 -2 9 4 6
9 9 12 6 3 -3 11 1 19 9 7 7 45 25 84 40 114 44 74 39 -51 -6 -63 -23 -134
-46 -159 -52 -25 -6 -47 -14 -50 -17 -9 -11 -86 -27 -116 -24 -18 2 -24 0 -15
-5 10 -6 10 -10 1 -16 -6 -4 -14 -5 -17 -2 -3 3 -15 -3 -27 -14 -11 -11 -43
-32 -71 -45 -27 -14 -73 -46 -102 -70 l-52 -45 -33 17 -33 17 30 -29 c19 -18
41 -29 60 -29 17 -1 47 -9 69 -19 29 -13 59 -17 122 -15 45 2 81 7 78 11 -3 4
1 8 10 8 8 0 16 5 18 10 4 12 127 55 180 63 39 6 127 -13 95 -21 -9 -2 -26
-21 -38 -43 -19 -38 -59 -65 -83 -55 -6 2 -4 5 5 5 16 1 36 48 24 59 -3 3 -5
1 -5 -5 0 -5 -8 -10 -17 -10 -48 1 -73 -4 -73 -13 0 -5 7 -10 15 -10 8 0 15
-4 15 -10 0 -5 -7 -10 -15 -10 -8 0 -14 -3 -14 -7 1 -5 1 -16 0 -26 -2 -33
-21 -7 -21 29 0 19 -4 34 -9 34 -17 0 -23 -20 -12 -34 9 -10 7 -16 -6 -21 -10
-5 -24 -7 -30 -6 -7 1 -13 -3 -13 -9 0 -5 -20 -10 -44 -10 -24 0 -46 -3 -48
-7 -3 -9 -137 -57 -142 -52 -2 2 0 13 5 24 4 11 8 14 8 8 1 -18 41 17 41 36 0
11 -3 11 -13 -3 -12 -16 -19 -17 -62 -8 -52 11 -76 9 -145 -13 -64 -20 -107
-20 -170 -2 -88 27 -130 29 -136 9 -12 -39 -21 -47 -52 -44 -26 3 -32 -1 -38
-22 -8 -35 -27 -33 -19 2 5 23 2 28 -15 28 -11 0 -20 -6 -20 -14 0 -7 5 -10
10 -7 6 3 10 2 10 -3 0 -13 -48 -32 -90 -36 -45 -4 -94 -17 -100 -26 -7 -10
-214 -87 -265 -99 -22 -5 -66 -16 -98 -25 -107 -29 -216 -17 -348 40 -45 19
-86 31 -91 27 -6 -3 -8 -1 -5 4 12 20 -177 94 -232 92 l-26 -2 25 -4 c83 -14
137 -45 145 -83 1 -3 5 -22 9 -43 5 -21 16 -42 26 -47 10 -5 20 -22 23 -37 7
-31 -13 -133 -25 -133 -5 0 -8 -18 -8 -40 0 -30 -4 -40 -16 -40 -14 0 -14 -3
-4 -15 9 -11 10 -19 1 -28 -8 -10 -7 -17 1 -25 9 -9 8 -12 -5 -12 -9 0 -17 -5
-17 -12 0 -6 3 -8 7 -4 12 11 71 -54 66 -74 -3 -10 0 -21 6 -24 16 -10 13 -77
-3 -90 -22 -17 -25 -51 -3 -50 18 2 24 -29 19 -110 -2 -33 0 -37 12 -27 23 20
29 -6 6 -29 -11 -11 -20 -28 -20 -38 0 -9 -13 -23 -30 -30 -20 -9 -33 -25 -39
-45 -5 -18 -10 -24 -10 -15 -1 15 -13 11 -78 -22 -42 -22 -81 -40 -87 -40 -5
0 -23 -12 -39 -27 -19 -18 -31 -24 -34 -16 -3 9 -14 8 -41 -5 -20 -9 -40 -21
-44 -26 -9 -13 -155 0 -202 17 -52 19 -79 46 -96 96 -7 22 -19 42 -26 45 -8 3
-14 15 -14 26 0 11 -4 20 -8 20 -5 0 -7 15 -6 32 1 18 -1 37 -5 43 -8 9 -18
83 -27 198 -4 54 -19 87 -39 87 -19 0 -23 -8 -40 -91 -23 -107 -29 -200 -29
-434 0 -186 3 -220 23 -295 12 -47 31 -100 42 -118 10 -18 19 -43 19 -56 0
-12 3 -26 7 -30 4 -3 8 -14 10 -24 1 -9 13 -58 26 -109 17 -63 21 -95 14 -102
-6 -6 -7 -14 -3 -18 4 -4 11 -1 16 7 8 13 10 13 10 -1 0 -8 -6 -24 -14 -34
-13 -17 -14 -16 -21 22 -3 23 -12 44 -19 46 -20 8 12 -71 99 -248 158 -322
283 -488 565 -750 90 -84 302 -248 386 -298 118 -71 339 -158 515 -202 253
-64 608 -89 944 -66 501 35 858 148 1254 400 265 168 340 239 578 549 10 13
23 29 28 35 27 31 168 250 203 317 49 91 101 225 164 420 17 52 34 104 39 115
9 24 28 123 40 215 10 77 13 423 4 477 -32 190 -89 389 -121 418 -6 6 -16 30
-23 55 -26 88 -123 256 -213 364 -15 18 -25 35 -22 38 3 3 -13 24 -36 46 -22
23 -40 50 -40 60 0 10 -9 27 -20 37 -11 10 -20 25 -20 34 0 9 -15 22 -32 30
-18 7 -27 15 -20 18 15 6 16 39 1 48 -6 4 -8 14 -5 22 4 8 -8 30 -28 51 -19
20 -37 51 -41 70 -3 19 -11 32 -18 29 -11 -3 -57 55 -57 72 0 4 -10 17 -22 28
-13 12 -31 33 -41 47 -10 14 -24 26 -32 26 -8 0 -15 4 -15 9 0 4 -20 16 -44
25 -31 12 -43 22 -39 32 5 13 -7 18 -34 15 -7 -1 -13 5 -13 13 0 9 -10 13 -30
12 -20 -1 -30 3 -33 13 -2 11 -5 10 -9 -6z m107 -132 c3 -5 1 -12 -5 -16 -5
-3 -10 1 -10 9 0 18 6 21 15 7z m170 -591 c3 -5 17 -10 31 -10 14 0 24 -6 24
-14 0 -7 15 -19 33 -26 82 -31 160 -77 173 -102 8 -15 20 -31 28 -35 25 -14
157 -177 177 -218 11 -22 27 -51 35 -65 8 -14 17 -42 20 -62 4 -23 12 -38 20
-38 10 0 14 -13 14 -40 0 -26 4 -40 13 -40 9 0 13 -17 13 -57 0 -59 9 -134 25
-210 5 -23 6 -49 3 -57 -3 -9 -1 -16 5 -16 14 0 14 -57 0 -66 -7 -4 -9 -23 -5
-50 5 -36 2 -48 -15 -65 -11 -11 -18 -27 -15 -35 3 -7 0 -17 -7 -21 -7 -5 -18
-20 -24 -35 -11 -24 -10 -28 8 -33 16 -5 18 -10 8 -21 -6 -7 -15 -11 -20 -8
-5 3 -9 -2 -9 -10 0 -19 -5 -20 -31 -6 -16 9 -19 7 -19 -10 0 -11 -7 -20 -15
-20 -9 0 -14 -8 -12 -22 1 -18 -4 -24 -23 -26 -14 -2 -30 -12 -35 -24 -13 -27
-30 -20 -26 12 2 20 1 22 -12 12 -12 -10 -16 -9 -22 5 -5 10 -7 21 -7 26 3 11
-16 9 -23 -3 -4 -6 -11 -8 -16 -5 -5 4 -9 -6 -9 -22 0 -15 -5 -35 -10 -43 -7
-12 -11 -8 -16 19 l-7 34 -17 -33 c-14 -26 -18 -29 -23 -16 -4 10 -3 15 3 11
11 -7 13 15 5 38 -9 23 -85 -1 -86 -28 0 -18 -1 -18 -10 3 -7 18 -14 22 -29
17 -11 -4 -20 -2 -20 4 0 6 -11 13 -25 17 -15 4 -25 13 -25 24 0 21 -15 33
-45 37 -11 2 -28 12 -37 24 -15 17 -20 18 -38 7 -17 -11 -22 -11 -29 0 -4 7
-16 10 -27 6 -12 -4 -15 -3 -7 3 22 16 -8 56 -47 64 -19 4 -36 13 -38 19 -3 7
-13 20 -23 28 -11 9 -19 22 -19 30 0 7 -6 15 -14 18 -7 3 -19 23 -26 45 -7 21
-17 39 -22 39 -4 0 -8 8 -8 18 0 10 -11 28 -25 40 -21 18 -25 31 -25 76 0 30
-5 58 -10 61 -8 5 -7 12 1 22 10 11 10 16 0 22 -7 5 -11 25 -10 52 1 24 -3 54
-9 66 -16 29 -15 43 3 43 11 0 15 12 15 50 0 39 5 55 23 73 18 18 21 31 19 70
-3 29 0 47 7 47 6 0 11 18 11 40 0 28 4 40 14 40 8 0 16 7 20 15 3 8 12 15 21
15 8 0 15 6 16 13 2 34 11 63 24 77 8 9 15 24 15 33 0 9 5 19 10 22 6 4 8 16
4 27 -5 18 -3 20 23 16 29 -4 30 -3 23 28 -6 24 -4 31 5 28 7 -3 16 -1 20 5 3
6 22 11 41 11 28 0 34 4 34 21 0 18 4 20 30 14 19 -4 30 -3 30 4 0 14 17 14
25 1z m-2015 -175 c19 -14 47 -45 62 -70 l28 -45 -19 -31 c-11 -17 -17 -37
-15 -44 3 -6 -2 -18 -11 -25 -8 -7 -15 -17 -15 -22 0 -5 -13 -23 -30 -40 -16
-16 -30 -36 -30 -45 0 -8 -6 -27 -14 -41 -7 -15 -22 -46 -32 -69 -11 -24 -22
-43 -25 -43 -4 0 -10 -11 -13 -25 -4 -14 -11 -25 -16 -25 -6 0 -10 -7 -10 -15
0 -9 -7 -18 -15 -21 -8 -4 -15 -13 -15 -20 0 -8 -11 -20 -25 -26 -14 -6 -25
-14 -25 -18 0 -28 -76 -75 -104 -64 -8 3 -23 1 -33 -5 -41 -21 -140 35 -103
59 12 8 11 10 -7 10 -25 0 -30 19 -10 39 10 11 9 13 -3 9 -13 -5 -16 4 -16 49
-1 34 2 50 7 41 13 -19 11 -3 -2 26 -8 17 -9 30 -2 38 5 7 16 34 23 60 7 26
19 53 26 59 8 6 14 17 14 24 0 7 10 20 23 28 32 22 107 96 107 105 0 11 159
137 197 157 40 21 64 19 103 -10z m2600 -1100 c0 -8 -7 -15 -15 -15 -9 0 -12
6 -9 15 4 8 10 15 15 15 5 0 9 -7 9 -15z m-330 -245 c0 -5 -5 -10 -11 -10 -5
0 -7 5 -4 10 3 6 8 10 11 10 2 0 4 -4 4 -10z m-4283 -412 c-3 -8 -6 -5 -6 6
-1 11 2 17 5 13 3 -3 4 -12 1 -19z m1297 -23 c9 -34 41 -33 54 3 10 26 10 26
11 -11 1 -45 -16 -66 -52 -64 -22 2 -27 7 -27 30 0 20 -5 27 -20 27 -13 0 -20
-7 -20 -20 0 -13 -7 -20 -20 -20 -12 0 -20 -7 -20 -17 0 -9 -2 -14 -5 -11 -3
3 -2 19 1 36 5 22 12 32 25 32 12 0 19 7 19 20 0 31 46 27 54 -5z m106 -95 c0
-22 -4 -40 -10 -40 -5 0 -10 9 -10 19 0 11 -4 23 -10 26 -18 11 -11 35 10 35
17 0 20 -7 20 -40z m-50 -16 c0 -8 -4 -12 -10 -9 -5 3 -10 10 -10 16 0 5 5 9
10 9 6 0 10 -7 10 -16z"/>
<path d="M5410 2793 c0 -4 5 -15 10 -23 8 -13 10 -13 10 2 0 9 -4 20 -10 23
-5 3 -10 3 -10 -2z"/>
<path d="M2766 4527 c3 -10 9 -15 12 -12 3 3 0 11 -7 18 -10 9 -11 8 -5 -6z"/>
<path d="M2731 4494 c0 -11 3 -14 6 -6 3 7 2 16 -1 19 -3 4 -6 -2 -5 -13z"/>
<path d="M1120 4496 c0 -2 8 -10 18 -17 15 -13 16 -12 3 4 -13 16 -21 21 -21
13z"/>
<path d="M3820 4470 c-13 -8 -12 -10 3 -10 9 0 17 5 17 10 0 12 -1 12 -20 0z"/>
<path d="M3645 4459 c-9 -14 -2 -20 14 -10 8 6 9 11 3 15 -6 3 -14 1 -17 -5z"/>
<path d="M1240 4455 c0 -2 32 -24 71 -50 45 -30 74 -43 78 -36 4 6 23 10 44 9
20 -1 34 -5 31 -10 -3 -4 0 -8 6 -8 28 0 -1 26 -41 37 -40 10 -41 12 -14 13
28 2 27 3 -10 12 -22 5 -55 8 -72 6 -18 -2 -33 -1 -33 2 0 3 -13 11 -30 17
-16 6 -30 10 -30 8z"/>
<path d="M2425 4450 c3 -5 8 -10 11 -10 2 0 4 5 4 10 0 6 -5 10 -11 10 -5 0
-7 -4 -4 -10z"/>
<path d="M3775 4450 c-8 -13 -1 -24 14 -19 6 3 7 10 2 18 -6 10 -10 10 -16 1z"/>
<path d="M3723 4432 c-18 -11 -20 -47 -3 -47 9 0 15 9 14 21 0 16 4 20 14 16
10 -3 13 -1 8 6 -8 14 -16 15 -33 4z"/>
<path d="M1236 4416 c3 -8 13 -17 22 -21 13 -5 13 -2 -3 15 -21 24 -26 25 -19
6z"/>
<path d="M2950 4391 c0 -25 6 -27 13 -6 4 8 2 17 -3 20 -6 4 -10 -3 -10 -14z"/>
<path d="M1490 4395 c0 -3 12 -10 28 -16 25 -10 26 -11 9 -24 -16 -11 -16 -13
-1 -19 25 -10 46 -7 38 5 -4 7 1 9 15 5 11 -3 30 -9 41 -12 11 -3 20 -10 20
-16 0 -5 7 -8 15 -5 8 4 17 2 19 -2 10 -15 69 -22 226 -26 130 -3 149 -2 118
8 -34 11 -36 14 -20 25 15 11 14 11 -4 3 -23 -11 -51 -7 -239 29 -60 12 -122
20 -137 18 -15 -3 -25 -1 -23 3 3 4 -12 10 -33 13 -20 4 -45 9 -54 12 -10 3
-18 3 -18 -1z m267 -71 c-3 -3 -12 -4 -19 -1 -8 3 -5 6 6 6 11 1 17 -2 13 -5z
m100 -30 c-3 -3 -12 -4 -19 -1 -8 3 -5 6 6 6 11 1 17 -2 13 -5z"/>
<path d="M3528 4389 c-24 -13 -23 -28 0 -22 10 2 19 11 19 19 0 8 -1 14 -1 14
-1 0 -9 -5 -18 -11z"/>
<path d="M3364 4376 c-3 -8 -1 -23 5 -33 6 -10 11 -13 11 -6 0 7 6 10 13 7 7
-2 23 6 34 18 l22 23 -40 3 c-27 2 -41 -2 -45 -12z"/>
<path d="M1340 4356 c30 -14 69 -28 85 -31 l30 -7 -27 -10 c-31 -11 -36 -23
-12 -32 24 -9 31 -7 14 4 -26 17 8 12 80 -11 36 -11 92 -22 125 -23 35 -2 80
-12 108 -25 26 -12 52 -19 57 -16 5 3 18 1 29 -4 16 -9 19 -8 16 7 -2 9 -4 19
-5 22 -1 3 -2 9 -1 13 1 5 -3 6 -8 3 -5 -3 -22 1 -38 9 -16 8 -40 16 -54 17
-13 2 -26 6 -29 10 -3 4 -26 9 -50 12 -25 2 -58 9 -75 14 -77 26 -102 31 -122
26 -14 -4 -23 -2 -23 5 0 6 -17 11 -37 11 -21 1 -49 7 -63 15 -14 8 -32 14
-40 14 -8 1 10 -10 40 -23z"/>
<path d="M2910 4365 c7 -8 16 -12 21 -9 13 8 1 24 -18 24 -13 0 -13 -3 -3 -15z"/>
<path d="M2221 4360 c-9 -5 -10 -9 -2 -14 6 -4 11 -16 11 -27 0 -10 3 -18 8
-18 4 1 18 1 32 0 23 -2 23 -3 -10 -18 -29 -13 -32 -17 -15 -21 10 -2 29 -11
41 -19 18 -11 23 -11 27 -1 4 9 6 8 6 -3 1 -11 12 -18 31 -21 17 -3 30 -2 30
2 0 9 -46 51 -51 46 -2 -2 -10 2 -17 10 -18 20 -2 17 36 -6 29 -18 33 -19 30
-4 -2 9 -19 25 -38 35 -19 11 -30 19 -25 19 5 0 1 6 -10 13 -37 24 -72 35 -84
27z"/>
<path d="M1256 4315 c-21 -19 -41 -36 -45 -36 -13 -3 -154 -159 -149 -165 4
-3 15 3 26 13 28 27 84 74 127 108 21 17 47 38 57 48 10 9 18 14 18 10 0 -5 4
-1 10 7 5 9 5 19 -2 27 -15 18 0 16 18 -2 9 -8 11 -15 5 -15 -6 0 -11 -5 -11
-11 0 -5 5 -7 10 -4 6 4 19 1 28 -7 15 -12 16 -11 3 5 -12 15 -12 17 3 11 33
-13 15 16 -20 31 -20 8 -37 15 -38 15 -1 0 -19 -16 -40 -35z"/>
<path d="M3336 4341 c-3 -5 1 -11 9 -15 9 -3 15 0 15 9 0 16 -16 20 -24 6z"/>
<path d="M1918 4333 c7 -3 16 -2 19 1 4 3 -2 6 -13 5 -11 0 -14 -3 -6 -6z"/>
<path d="M2020 4309 c0 -5 5 -7 10 -4 6 3 10 8 10 11 0 2 -4 4 -10 4 -5 0 -10
-5 -10 -11z"/>
<path d="M3298 4313 c7 -3 16 -2 19 1 4 3 -2 6 -13 5 -11 0 -14 -3 -6 -6z"/>
<path d="M2105 4300 c3 -5 13 -10 21 -10 8 0 12 5 9 10 -3 6 -13 10 -21 10 -8
0 -12 -4 -9 -10z"/>
<path d="M2065 4280 c-4 -6 3 -10 14 -10 25 0 27 6 6 13 -8 4 -17 2 -20 -3z"/>
<path d="M3245 4280 c3 -5 11 -10 16 -10 6 0 7 5 4 10 -3 6 -11 10 -16 10 -6
0 -7 -4 -4 -10z"/>
<path d="M1895 4270 c3 -5 8 -10 11 -10 2 0 4 5 4 10 0 6 -5 10 -11 10 -5 0
-7 -4 -4 -10z"/>
<path d="M1468 4243 c7 -3 16 -2 19 1 4 3 -2 6 -13 5 -11 0 -14 -3 -6 -6z"/>
<path d="M1550 4240 c8 -5 20 -10 25 -10 6 0 3 5 -5 10 -8 5 -19 10 -25 10 -5
0 -3 -5 5 -10z"/>
<path d="M1863 4229 c-1 -11 2 -17 8 -14 5 4 9 0 9 -8 0 -19 22 -37 50 -42 34
-7 43 5 23 27 -18 21 -18 21 5 7 12 -8 20 -19 18 -25 -3 -8 10 -12 35 -12 21
-1 44 -4 50 -8 18 -11 60 -13 53 -3 -3 5 5 9 18 9 l23 1 -25 14 c-29 17 -44
19 -35 5 3 -5 0 -7 -9 -4 -8 3 -13 11 -10 17 2 7 -8 17 -22 24 -22 10 -25 10
-20 -3 4 -10 2 -13 -7 -7 -17 11 -80 33 -95 33 -7 0 -11 -4 -8 -9 3 -5 -1 -11
-9 -14 -10 -4 -12 -1 -8 11 3 9 3 14 -2 10 -4 -4 -15 -3 -24 2 -13 6 -17 4
-18 -11z m71 -37 c3 -5 -1 -9 -9 -9 -8 0 -12 4 -9 9 3 4 7 8 9 8 2 0 6 -4 9
-8z"/>
<path d="M2055 4240 c3 -5 10 -10 16 -10 5 0 9 5 9 10 0 6 -7 10 -16 10 -8 0
-12 -4 -9 -10z"/>
<path d="M1495 4230 c-3 -5 -2 -10 4 -10 5 0 13 5 16 10 3 6 2 10 -4 10 -5 0
-13 -4 -16 -10z"/>
<path d="M1698 4213 c7 -3 16 -2 19 1 4 3 -2 6 -13 5 -11 0 -14 -3 -6 -6z"/>
<path d="M2420 4205 c0 -8 5 -15 10 -15 6 0 10 7 10 15 0 8 -4 15 -10 15 -5 0
-10 -7 -10 -15z"/>
<path d="M1758 4178 c5 -5 16 -8 23 -6 8 3 3 7 -10 11 -17 4 -21 3 -13 -5z"/>
<path d="M2453 4163 c1 -16 4 -19 14 -12 7 6 17 8 23 4 5 -3 10 1 10 9 0 18
-16 21 -26 5 -4 -8 -9 -7 -15 2 -6 10 -8 7 -6 -8z"/>
<path d="M3020 4091 l-25 -7 24 -8 c16 -6 28 -3 39 8 18 18 8 20 -38 7z"/>
<path d="M2400 4046 c0 -9 7 -12 21 -9 16 4 17 8 7 14 -19 13 -28 11 -28 -5z"/>
<path d="M2406 3985 c-3 -8 -1 -15 4 -15 6 0 10 7 10 15 0 8 -2 15 -4 15 -2 0
-6 -7 -10 -15z"/>
<path d="M2541 3991 c-8 -5 -10 -14 -6 -21 6 -9 10 -8 17 4 12 21 7 28 -11 17z"/>
<path d="M2585 3970 c-3 -6 1 -7 9 -4 18 7 21 14 7 14 -6 0 -13 -4 -16 -10z"/>
<path d="M2490 3955 c-17 -21 -9 -27 13 -10 10 7 14 16 9 19 -5 3 -15 -1 -22
-9z"/>
<path d="M3295 3960 l-30 -8 30 -1 c17 0 37 4 45 9 13 9 13 10 0 9 -8 -1 -28
-5 -45 -9z"/>
<path d="M2567 3936 c-4 -9 -16 -16 -27 -16 -24 0 -27 -18 -4 -27 21 -8 62 33
47 48 -7 7 -12 6 -16 -5z"/>
<path d="M2230 3920 c-13 -8 -12 -10 3 -10 10 0 15 -4 12 -10 -3 -5 -2 -10 3
-10 8 0 22 22 22 36 0 7 -25 4 -40 -6z"/>
<path d="M2420 3894 c-8 -16 -16 -33 -18 -37 -3 -5 5 -4 17 3 12 6 19 15 16
21 -4 5 -1 8 6 7 6 -2 14 3 17 11 2 8 0 11 -6 7 -6 -3 -12 -1 -14 5 -2 6 -10
-2 -18 -17z"/>
<path d="M2487 3900 c3 -11 0 -20 -6 -20 -6 0 -11 -8 -11 -17 0 -15 2 -14 15
3 16 21 20 54 6 54 -5 0 -7 -9 -4 -20z"/>
<path d="M2392 3895 c-11 -12 -10 -15 3 -15 8 0 15 7 15 15 0 18 -2 18 -18 0z"/>
<path d="M2593 3896 c-9 -11 -7 -14 13 -12 13 0 24 7 24 14 0 16 -22 15 -37
-2z"/>
<path d="M1233 3833 c9 -2 23 -2 30 0 6 3 -1 5 -18 5 -16 0 -22 -2 -12 -5z"/>
<path d="M1040 3810 c0 -5 4 -10 9 -10 6 0 13 5 16 10 3 6 -1 10 -9 10 -9 0
-16 -4 -16 -10z"/>
<path d="M2080 3810 c0 -6 7 -10 15 -10 8 0 15 2 15 4 0 2 -7 6 -15 10 -8 3
-15 1 -15 -4z"/>
<path d="M1936 3778 c-50 -25 -41 -34 10 -9 21 10 46 21 54 24 10 4 9 5 -5 5
-11 0 -37 -9 -59 -20z"/>
<path d="M2164 3779 l-19 -21 39 16 c51 21 55 26 24 26 -14 0 -33 -10 -44 -21z"/>
<path d="M1840 3735 c-24 -14 -24 -14 -3 -15 12 0 25 5 28 11 11 17 2 18 -25
4z"/>
<path d="M1938 3713 c-16 -2 -28 -8 -28 -13 0 -5 -17 -10 -37 -12 -20 -2 -38
-8 -40 -14 -3 -8 8 -9 39 -2 24 5 59 11 78 13 40 5 93 23 70 25 -8 0 -24 2
-35 4 -11 2 -32 1 -47 -1z"/>
</g>
</svg>
